<svg xmlns="http://www.w3.org/2000/svg" viewBox="0 0 420 310" role="img" aria-label="Hand-drawn topology and non-Hermitian physics illustration">
  <rect width="420" height="310" rx="18" fill="#f4f6f1"/>
  <g fill="none" stroke="#193a5a" stroke-width="3" stroke-linecap="round" stroke-linejoin="round">
    <path d="M77 218c55-80 112-80 171 0s91 28 112-27"/>
    <path d="M77 94c50 75 108 76 171 0s91-32 112 28"/>
    <path d="M116 221c16-52 46-90 92-116"/>
    <path d="M280 221c-16-52-46-90-92-116"/>
    <path d="M210 82c33 28 50 57 50 87s-17 59-50 87"/>
    <path d="M210 82c-33 28-50 57-50 87s17 59 50 87"/>
  </g>
  <g>
    <circle cx="156" cy="118" r="14" fill="#fff" stroke="#175fa3" stroke-width="4"/>
    <circle cx="264" cy="118" r="14" fill="#fff" stroke="#bb5d6a" stroke-width="4"/>
    <circle cx="156" cy="221" r="14" fill="#fff" stroke="#d69d2f" stroke-width="4"/>
    <circle cx="264" cy="221" r="14" fill="#fff" stroke="#2a9d8f" stroke-width="4"/>
  </g>
  <g fill="none" stroke="#175fa3" stroke-width="3" stroke-linecap="round">
    <path d="M91 163c28-19 56-19 84 0"/>
    <path d="M245 163c28 19 56 19 84 0"/>
    <path d="M328 72c18 14 27 32 27 55"/>
  </g>
  <path d="M100 66l22 12-22 12" fill="none" stroke="#d69d2f" stroke-width="5" stroke-linecap="round" stroke-linejoin="round"/>
  <path d="M316 244l-22-12 22-12" fill="none" stroke="#bb5d6a" stroke-width="5" stroke-linecap="round" stroke-linejoin="round"/>
  <text x="55" y="268" font-family="Georgia, serif" font-size="23" font-weight="700" fill="#193a5a">topology &amp; non-Hermitian</text>
</svg>
